<svg width="1440" height="721" viewBox="0 0 1440 721" fill="none" xmlns="http://www.w3.org/2000/svg">
<rect width="1440" height="721" fill="url(#paint0_linear_321_2)"/>
<path d="M55.6705 266L45.9886 231.091H51.5284L58.3295 258.125H58.6534L65.7273 231.091H71.2159L78.2898 258.142H78.6136L85.3977 231.091H90.9545L81.2557 266H75.9545L68.608 239.852H68.3352L60.9886 266H55.6705ZM111.933 255.142V239.818H117.047V266H112.036V261.466H111.763C111.161 262.864 110.195 264.028 108.865 264.96C107.547 265.881 105.905 266.341 103.939 266.341C102.257 266.341 100.768 265.972 99.473 265.233C98.1889 264.483 97.1776 263.375 96.4389 261.909C95.7116 260.443 95.348 258.631 95.348 256.472V239.818H100.445V255.858C100.445 257.642 100.939 259.062 101.928 260.119C102.916 261.176 104.2 261.705 105.78 261.705C106.734 261.705 107.683 261.466 108.626 260.989C109.581 260.511 110.371 259.79 110.996 258.824C111.632 257.858 111.945 256.631 111.933 255.142ZM123.895 239.818H128.991V267.705C128.991 269.455 128.673 270.932 128.037 272.136C127.412 273.341 126.48 274.256 125.241 274.881C124.014 275.506 122.497 275.818 120.69 275.818C120.509 275.818 120.338 275.818 120.179 275.818C120.009 275.818 119.832 275.813 119.651 275.801V271.42C119.81 271.42 119.952 271.42 120.077 271.42C120.19 271.42 120.321 271.42 120.469 271.42C121.673 271.42 122.543 271.097 123.077 270.449C123.622 269.813 123.895 268.886 123.895 267.67V239.818ZM126.418 235.778C125.531 235.778 124.77 235.483 124.134 234.892C123.509 234.29 123.196 233.574 123.196 232.744C123.196 231.903 123.509 231.187 124.134 230.597C124.77 229.994 125.531 229.693 126.418 229.693C127.304 229.693 128.06 229.994 128.685 230.597C129.321 231.187 129.639 231.903 129.639 232.744C129.639 233.574 129.321 234.29 128.685 234.892C128.06 235.483 127.304 235.778 126.418 235.778ZM152.433 255.142V239.818H157.547V266H152.536V261.466H152.263C151.661 262.864 150.695 264.028 149.365 264.96C148.047 265.881 146.405 266.341 144.439 266.341C142.757 266.341 141.268 265.972 139.973 265.233C138.689 264.483 137.678 263.375 136.939 261.909C136.212 260.443 135.848 258.631 135.848 256.472V239.818H140.945V255.858C140.945 257.642 141.439 259.062 142.428 260.119C143.416 261.176 144.7 261.705 146.28 261.705C147.234 261.705 148.183 261.466 149.126 260.989C150.081 260.511 150.871 259.79 151.496 258.824C152.132 257.858 152.445 256.631 152.433 255.142ZM174.196 266.511C172.082 266.511 170.196 265.972 168.537 264.892C166.889 263.801 165.594 262.25 164.651 260.239C163.719 258.216 163.253 255.79 163.253 252.96C163.253 250.131 163.724 247.71 164.668 245.699C165.622 243.687 166.929 242.148 168.588 241.08C170.247 240.011 172.128 239.477 174.23 239.477C175.855 239.477 177.162 239.75 178.151 240.295C179.151 240.83 179.923 241.455 180.469 242.17C181.026 242.886 181.457 243.517 181.764 244.062H182.071V231.091H187.168V266H182.19V261.926H181.764C181.457 262.483 181.014 263.119 180.435 263.835C179.866 264.551 179.082 265.176 178.082 265.71C177.082 266.244 175.787 266.511 174.196 266.511ZM175.321 262.165C176.787 262.165 178.026 261.778 179.037 261.006C180.06 260.222 180.832 259.136 181.355 257.75C181.889 256.364 182.156 254.75 182.156 252.909C182.156 251.091 181.895 249.5 181.372 248.136C180.849 246.773 180.082 245.71 179.071 244.949C178.06 244.187 176.81 243.807 175.321 243.807C173.787 243.807 172.509 244.205 171.486 245C170.463 245.795 169.69 246.881 169.168 248.256C168.656 249.631 168.401 251.182 168.401 252.909C168.401 254.659 168.662 256.233 169.185 257.631C169.707 259.028 170.48 260.136 171.503 260.955C172.537 261.761 173.81 262.165 175.321 262.165ZM199.129 257.119L199.095 250.898H199.982L210.413 239.818H216.516L204.618 252.432H203.817L199.129 257.119ZM194.442 266V231.091H199.538V266H194.442ZM210.976 266L201.601 253.557L205.112 249.994L217.232 266H210.976ZM228.78 266.58C227.121 266.58 225.621 266.273 224.28 265.659C222.939 265.034 221.876 264.131 221.092 262.949C220.32 261.767 219.933 260.318 219.933 258.602C219.933 257.125 220.217 255.909 220.786 254.955C221.354 254 222.121 253.244 223.087 252.688C224.053 252.131 225.132 251.71 226.325 251.426C227.518 251.142 228.734 250.926 229.973 250.778C231.541 250.597 232.814 250.449 233.791 250.335C234.768 250.21 235.479 250.011 235.922 249.739C236.365 249.466 236.587 249.023 236.587 248.409V248.29C236.587 246.801 236.166 245.648 235.325 244.83C234.496 244.011 233.257 243.602 231.609 243.602C229.893 243.602 228.541 243.983 227.553 244.744C226.575 245.494 225.899 246.33 225.524 247.25L220.734 246.159C221.303 244.568 222.132 243.284 223.223 242.307C224.325 241.318 225.592 240.602 227.024 240.159C228.456 239.705 229.962 239.477 231.541 239.477C232.587 239.477 233.695 239.602 234.865 239.852C236.047 240.091 237.149 240.534 238.172 241.182C239.206 241.83 240.053 242.756 240.712 243.96C241.371 245.153 241.7 246.705 241.7 248.614V266H236.723V262.42H236.518C236.189 263.08 235.695 263.727 235.036 264.364C234.376 265 233.53 265.528 232.496 265.949C231.462 266.369 230.223 266.58 228.78 266.58ZM229.888 262.489C231.297 262.489 232.501 262.21 233.501 261.653C234.513 261.097 235.28 260.369 235.803 259.472C236.337 258.562 236.604 257.591 236.604 256.557V253.182C236.422 253.364 236.07 253.534 235.547 253.693C235.036 253.841 234.45 253.972 233.791 254.085C233.132 254.187 232.49 254.284 231.865 254.375C231.24 254.455 230.717 254.523 230.297 254.58C229.308 254.705 228.405 254.915 227.587 255.21C226.78 255.506 226.132 255.932 225.643 256.489C225.166 257.034 224.928 257.761 224.928 258.67C224.928 259.932 225.393 260.886 226.325 261.534C227.257 262.17 228.445 262.489 229.888 262.489ZM253.585 250.455V266H248.489V239.818H253.381V244.08H253.705C254.307 242.693 255.25 241.58 256.534 240.739C257.83 239.898 259.46 239.477 261.426 239.477C263.21 239.477 264.773 239.852 266.114 240.602C267.455 241.341 268.494 242.443 269.233 243.909C269.972 245.375 270.341 247.187 270.341 249.347V266H265.244V249.96C265.244 248.062 264.75 246.58 263.761 245.511C262.773 244.432 261.415 243.892 259.688 243.892C258.506 243.892 257.455 244.148 256.534 244.659C255.625 245.17 254.903 245.92 254.369 246.909C253.847 247.886 253.585 249.068 253.585 250.455ZM290.288 231.091H296.68L307.794 258.227H308.203L319.317 231.091H325.709V266H320.697V240.739H320.374L310.078 265.949H305.919L295.624 240.722H295.3V266H290.288V231.091ZM340.577 266.58C338.918 266.58 337.418 266.273 336.077 265.659C334.736 265.034 333.673 264.131 332.889 262.949C332.116 261.767 331.73 260.318 331.73 258.602C331.73 257.125 332.014 255.909 332.582 254.955C333.151 254 333.918 253.244 334.884 252.688C335.849 252.131 336.929 251.71 338.122 251.426C339.315 251.142 340.531 250.926 341.77 250.778C343.338 250.597 344.611 250.449 345.588 250.335C346.565 250.21 347.276 250.011 347.719 249.739C348.162 249.466 348.384 249.023 348.384 248.409V248.29C348.384 246.801 347.963 245.648 347.122 244.83C346.293 244.011 345.054 243.602 343.406 243.602C341.69 243.602 340.338 243.983 339.349 244.744C338.372 245.494 337.696 246.33 337.321 247.25L332.531 246.159C333.099 244.568 333.929 243.284 335.02 242.307C336.122 241.318 337.389 240.602 338.821 240.159C340.253 239.705 341.759 239.477 343.338 239.477C344.384 239.477 345.491 239.602 346.662 239.852C347.844 240.091 348.946 240.534 349.969 241.182C351.003 241.83 351.849 242.756 352.509 243.96C353.168 245.153 353.497 246.705 353.497 248.614V266H348.52V262.42H348.315C347.986 263.08 347.491 263.727 346.832 264.364C346.173 265 345.327 265.528 344.293 265.949C343.259 266.369 342.02 266.58 340.577 266.58ZM341.685 262.489C343.094 262.489 344.298 262.21 345.298 261.653C346.31 261.097 347.077 260.369 347.599 259.472C348.134 258.562 348.401 257.591 348.401 256.557V253.182C348.219 253.364 347.866 253.534 347.344 253.693C346.832 253.841 346.247 253.972 345.588 254.085C344.929 254.187 344.287 254.284 343.662 254.375C343.037 254.455 342.514 254.523 342.094 254.58C341.105 254.705 340.202 254.915 339.384 255.21C338.577 255.506 337.929 255.932 337.44 256.489C336.963 257.034 336.724 257.761 336.724 258.67C336.724 259.932 337.19 260.886 338.122 261.534C339.054 262.17 340.241 262.489 341.685 262.489ZM379.905 246.21L375.286 247.028C375.092 246.437 374.786 245.875 374.365 245.341C373.956 244.807 373.399 244.369 372.695 244.028C371.99 243.687 371.109 243.517 370.053 243.517C368.609 243.517 367.405 243.841 366.439 244.489C365.473 245.125 364.99 245.949 364.99 246.96C364.99 247.835 365.314 248.54 365.962 249.074C366.609 249.608 367.655 250.045 369.098 250.386L373.257 251.341C375.666 251.898 377.462 252.756 378.643 253.915C379.825 255.074 380.416 256.58 380.416 258.432C380.416 260 379.962 261.398 379.053 262.625C378.155 263.841 376.899 264.795 375.286 265.489C373.683 266.182 371.825 266.528 369.712 266.528C366.78 266.528 364.388 265.903 362.536 264.653C360.683 263.392 359.547 261.602 359.126 259.284L364.053 258.534C364.359 259.818 364.99 260.79 365.945 261.449C366.899 262.097 368.143 262.42 369.678 262.42C371.348 262.42 372.683 262.074 373.683 261.381C374.683 260.676 375.183 259.818 375.183 258.807C375.183 257.989 374.876 257.301 374.263 256.744C373.661 256.187 372.734 255.767 371.484 255.483L367.053 254.511C364.609 253.955 362.803 253.068 361.632 251.852C360.473 250.636 359.893 249.097 359.893 247.233C359.893 245.687 360.325 244.335 361.189 243.176C362.053 242.017 363.246 241.114 364.768 240.466C366.291 239.807 368.036 239.477 370.001 239.477C372.831 239.477 375.058 240.091 376.683 241.318C378.308 242.534 379.382 244.165 379.905 246.21ZM393.639 266.58C391.98 266.58 390.48 266.273 389.139 265.659C387.798 265.034 386.736 264.131 385.952 262.949C385.179 261.767 384.793 260.318 384.793 258.602C384.793 257.125 385.077 255.909 385.645 254.955C386.213 254 386.98 253.244 387.946 252.688C388.912 252.131 389.991 251.71 391.185 251.426C392.378 251.142 393.594 250.926 394.832 250.778C396.401 250.597 397.673 250.449 398.651 250.335C399.628 250.21 400.338 250.011 400.781 249.739C401.224 249.466 401.446 249.023 401.446 248.409V248.29C401.446 246.801 401.026 245.648 400.185 244.83C399.355 244.011 398.116 243.602 396.469 243.602C394.753 243.602 393.401 243.983 392.412 244.744C391.435 245.494 390.759 246.33 390.384 247.25L385.594 246.159C386.162 244.568 386.991 243.284 388.082 242.307C389.185 241.318 390.452 240.602 391.884 240.159C393.315 239.705 394.821 239.477 396.401 239.477C397.446 239.477 398.554 239.602 399.724 239.852C400.906 240.091 402.009 240.534 403.031 241.182C404.065 241.83 404.912 242.756 405.571 243.96C406.23 245.153 406.56 246.705 406.56 248.614V266H401.582V262.42H401.378C401.048 263.08 400.554 263.727 399.895 264.364C399.236 265 398.389 265.528 397.355 265.949C396.321 266.369 395.082 266.58 393.639 266.58ZM394.747 262.489C396.156 262.489 397.361 262.21 398.361 261.653C399.372 261.097 400.139 260.369 400.662 259.472C401.196 258.562 401.463 257.591 401.463 256.557V253.182C401.281 253.364 400.929 253.534 400.406 253.693C399.895 253.841 399.31 253.972 398.651 254.085C397.991 254.187 397.349 254.284 396.724 254.375C396.099 254.455 395.577 254.523 395.156 254.58C394.168 254.705 393.264 254.915 392.446 255.21C391.639 255.506 390.991 255.932 390.503 256.489C390.026 257.034 389.787 257.761 389.787 258.67C389.787 259.932 390.253 260.886 391.185 261.534C392.116 262.17 393.304 262.489 394.747 262.489ZM437.761 266H426.46V231.091H438.119C441.54 231.091 444.477 231.79 446.932 233.188C449.386 234.574 451.267 236.568 452.574 239.17C453.892 241.761 454.551 244.869 454.551 248.494C454.551 252.131 453.886 255.256 452.557 257.869C451.239 260.483 449.33 262.494 446.83 263.903C444.33 265.301 441.307 266 437.761 266ZM431.727 261.398H437.472C440.131 261.398 442.341 260.898 444.102 259.898C445.864 258.886 447.182 257.426 448.057 255.517C448.932 253.597 449.369 251.256 449.369 248.494C449.369 245.756 448.932 243.432 448.057 241.523C447.193 239.614 445.903 238.165 444.188 237.176C442.472 236.187 440.341 235.693 437.795 235.693H431.727V261.398ZM471.976 266.528C469.396 266.528 467.175 265.977 465.311 264.875C463.459 263.761 462.027 262.199 461.016 260.188C460.016 258.165 459.516 255.795 459.516 253.08C459.516 250.398 460.016 248.034 461.016 245.989C462.027 243.943 463.436 242.347 465.243 241.199C467.061 240.051 469.186 239.477 471.618 239.477C473.095 239.477 474.527 239.722 475.913 240.21C477.3 240.699 478.544 241.466 479.646 242.511C480.749 243.557 481.618 244.915 482.254 246.585C482.891 248.244 483.209 250.261 483.209 252.636V254.443H462.396V250.625H478.214C478.214 249.284 477.942 248.097 477.396 247.062C476.851 246.017 476.084 245.193 475.095 244.591C474.118 243.989 472.97 243.688 471.652 243.688C470.22 243.688 468.97 244.04 467.902 244.744C466.845 245.437 466.027 246.347 465.447 247.472C464.879 248.585 464.595 249.795 464.595 251.102V254.085C464.595 255.835 464.902 257.324 465.516 258.551C466.141 259.778 467.01 260.716 468.124 261.364C469.237 262 470.538 262.318 472.027 262.318C472.993 262.318 473.874 262.182 474.669 261.909C475.464 261.625 476.152 261.205 476.732 260.648C477.311 260.091 477.754 259.403 478.061 258.585L482.885 259.455C482.499 260.875 481.805 262.119 480.805 263.188C479.817 264.244 478.572 265.068 477.072 265.659C475.584 266.239 473.885 266.528 471.976 266.528ZM488.864 275.818V239.818H493.841V244.062H494.267C494.563 243.517 494.989 242.886 495.545 242.17C496.102 241.455 496.875 240.83 497.864 240.295C498.852 239.75 500.159 239.477 501.784 239.477C503.898 239.477 505.784 240.011 507.443 241.08C509.102 242.148 510.403 243.687 511.347 245.699C512.301 247.71 512.778 250.131 512.778 252.96C512.778 255.79 512.307 258.216 511.364 260.239C510.42 262.25 509.125 263.801 507.477 264.892C505.83 265.972 503.949 266.511 501.835 266.511C500.244 266.511 498.943 266.244 497.932 265.71C496.932 265.176 496.148 264.551 495.58 263.835C495.011 263.119 494.574 262.483 494.267 261.926H493.96V275.818H488.864ZM493.858 252.909C493.858 254.75 494.125 256.364 494.659 257.75C495.193 259.136 495.966 260.222 496.977 261.006C497.989 261.778 499.227 262.165 500.693 262.165C502.216 262.165 503.489 261.761 504.511 260.955C505.534 260.136 506.307 259.028 506.83 257.631C507.364 256.233 507.631 254.659 507.631 252.909C507.631 251.182 507.369 249.631 506.847 248.256C506.335 246.881 505.563 245.795 504.528 245C503.506 244.205 502.227 243.807 500.693 243.807C499.216 243.807 497.966 244.187 496.943 244.949C495.932 245.71 495.165 246.773 494.642 248.136C494.119 249.5 493.858 251.091 493.858 252.909ZM526.108 266.58C524.449 266.58 522.949 266.273 521.608 265.659C520.267 265.034 519.205 264.131 518.42 262.949C517.648 261.767 517.261 260.318 517.261 258.602C517.261 257.125 517.545 255.909 518.114 254.955C518.682 254 519.449 253.244 520.415 252.688C521.381 252.131 522.46 251.71 523.653 251.426C524.847 251.142 526.063 250.926 527.301 250.778C528.869 250.597 530.142 250.449 531.119 250.335C532.097 250.21 532.807 250.011 533.25 249.739C533.693 249.466 533.915 249.023 533.915 248.409V248.29C533.915 246.801 533.494 245.648 532.653 244.83C531.824 244.011 530.585 243.602 528.938 243.602C527.222 243.602 525.869 243.983 524.881 244.744C523.903 245.494 523.227 246.33 522.852 247.25L518.062 246.159C518.631 244.568 519.46 243.284 520.551 242.307C521.653 241.318 522.92 240.602 524.352 240.159C525.784 239.705 527.29 239.477 528.869 239.477C529.915 239.477 531.023 239.602 532.193 239.852C533.375 240.091 534.477 240.534 535.5 241.182C536.534 241.83 537.381 242.756 538.04 243.96C538.699 245.153 539.028 246.705 539.028 248.614V266H534.051V262.42H533.847C533.517 263.08 533.023 263.727 532.364 264.364C531.705 265 530.858 265.528 529.824 265.949C528.79 266.369 527.551 266.58 526.108 266.58ZM527.216 262.489C528.625 262.489 529.83 262.21 530.83 261.653C531.841 261.097 532.608 260.369 533.131 259.472C533.665 258.562 533.932 257.591 533.932 256.557V253.182C533.75 253.364 533.398 253.534 532.875 253.693C532.364 253.841 531.778 253.972 531.119 254.085C530.46 254.187 529.818 254.284 529.193 254.375C528.568 254.455 528.045 254.523 527.625 254.58C526.636 254.705 525.733 254.915 524.915 255.21C524.108 255.506 523.46 255.932 522.972 256.489C522.494 257.034 522.256 257.761 522.256 258.67C522.256 259.932 522.722 260.886 523.653 261.534C524.585 262.17 525.773 262.489 527.216 262.489ZM550.913 250.455V266H545.817V239.818H550.709V244.08H551.033C551.635 242.693 552.578 241.58 553.862 240.739C555.158 239.898 556.788 239.477 558.754 239.477C560.538 239.477 562.101 239.852 563.442 240.602C564.783 241.341 565.822 242.443 566.561 243.909C567.3 245.375 567.669 247.187 567.669 249.347V266H562.572V249.96C562.572 248.062 562.078 246.58 561.089 245.511C560.101 244.432 558.743 243.892 557.016 243.892C555.834 243.892 554.783 244.148 553.862 244.659C552.953 245.17 552.232 245.92 551.697 246.909C551.175 247.886 550.913 249.068 550.913 250.455ZM616.611 242.443H611.293C611.088 241.307 610.707 240.307 610.151 239.443C609.594 238.58 608.912 237.847 608.105 237.244C607.298 236.642 606.395 236.187 605.395 235.881C604.406 235.574 603.355 235.42 602.241 235.42C600.23 235.42 598.429 235.926 596.838 236.938C595.259 237.949 594.009 239.432 593.088 241.386C592.179 243.341 591.724 245.727 591.724 248.545C591.724 251.386 592.179 253.784 593.088 255.739C594.009 257.693 595.264 259.17 596.855 260.17C598.446 261.17 600.236 261.67 602.224 261.67C603.327 261.67 604.372 261.523 605.361 261.227C606.361 260.92 607.264 260.472 608.071 259.881C608.878 259.29 609.56 258.568 610.116 257.716C610.685 256.852 611.077 255.864 611.293 254.75L616.611 254.767C616.327 256.483 615.776 258.062 614.957 259.506C614.151 260.938 613.111 262.176 611.838 263.222C610.577 264.256 609.134 265.057 607.509 265.625C605.884 266.193 604.111 266.477 602.19 266.477C599.168 266.477 596.474 265.761 594.111 264.33C591.747 262.886 589.884 260.824 588.52 258.142C587.168 255.46 586.491 252.261 586.491 248.545C586.491 244.818 587.173 241.619 588.537 238.949C589.901 236.267 591.764 234.21 594.128 232.778C596.491 231.335 599.179 230.614 602.19 230.614C604.043 230.614 605.77 230.881 607.372 231.415C608.986 231.937 610.435 232.71 611.719 233.733C613.003 234.744 614.065 235.983 614.906 237.449C615.747 238.903 616.315 240.568 616.611 242.443ZM633.788 266.528C631.209 266.528 628.987 265.977 627.124 264.875C625.271 263.761 623.839 262.199 622.828 260.188C621.828 258.165 621.328 255.795 621.328 253.08C621.328 250.398 621.828 248.034 622.828 245.989C623.839 243.943 625.249 242.347 627.055 241.199C628.874 240.051 630.999 239.477 633.43 239.477C634.908 239.477 636.339 239.722 637.726 240.21C639.112 240.699 640.357 241.466 641.459 242.511C642.561 243.557 643.43 244.915 644.067 246.585C644.703 248.244 645.021 250.261 645.021 252.636V254.443H624.209V250.625H640.027C640.027 249.284 639.754 248.097 639.209 247.062C638.663 246.017 637.896 245.193 636.908 244.591C635.93 243.989 634.783 243.688 633.464 243.688C632.033 243.688 630.783 244.04 629.714 244.744C628.658 245.437 627.839 246.347 627.26 247.472C626.692 248.585 626.408 249.795 626.408 251.102V254.085C626.408 255.835 626.714 257.324 627.328 258.551C627.953 259.778 628.822 260.716 629.936 261.364C631.05 262 632.351 262.318 633.839 262.318C634.805 262.318 635.686 262.182 636.482 261.909C637.277 261.625 637.964 261.205 638.544 260.648C639.124 260.091 639.567 259.403 639.874 258.585L644.697 259.455C644.311 260.875 643.618 262.119 642.618 263.188C641.629 264.244 640.385 265.068 638.885 265.659C637.396 266.239 635.697 266.528 633.788 266.528ZM650.676 266V239.818H655.602V243.977H655.875C656.352 242.568 657.193 241.46 658.398 240.653C659.614 239.835 660.989 239.426 662.523 239.426C662.841 239.426 663.216 239.437 663.648 239.46C664.091 239.483 664.438 239.511 664.688 239.545V244.42C664.483 244.364 664.119 244.301 663.597 244.233C663.074 244.153 662.551 244.114 662.028 244.114C660.824 244.114 659.75 244.369 658.807 244.881C657.875 245.381 657.136 246.08 656.591 246.977C656.045 247.864 655.773 248.875 655.773 250.011V266H650.676ZM676.483 266.58C674.824 266.58 673.324 266.273 671.983 265.659C670.642 265.034 669.58 264.131 668.795 262.949C668.023 261.767 667.636 260.318 667.636 258.602C667.636 257.125 667.92 255.909 668.489 254.955C669.057 254 669.824 253.244 670.79 252.688C671.756 252.131 672.835 251.71 674.028 251.426C675.222 251.142 676.438 250.926 677.676 250.778C679.244 250.597 680.517 250.449 681.494 250.335C682.472 250.21 683.182 250.011 683.625 249.739C684.068 249.466 684.29 249.023 684.29 248.409V248.29C684.29 246.801 683.869 245.648 683.028 244.83C682.199 244.011 680.96 243.602 679.312 243.602C677.597 243.602 676.244 243.983 675.256 244.744C674.278 245.494 673.602 246.33 673.227 247.25L668.438 246.159C669.006 244.568 669.835 243.284 670.926 242.307C672.028 241.318 673.295 240.602 674.727 240.159C676.159 239.705 677.665 239.477 679.244 239.477C680.29 239.477 681.398 239.602 682.568 239.852C683.75 240.091 684.852 240.534 685.875 241.182C686.909 241.83 687.756 242.756 688.415 243.96C689.074 245.153 689.403 246.705 689.403 248.614V266H684.426V262.42H684.222C683.892 263.08 683.398 263.727 682.739 264.364C682.08 265 681.233 265.528 680.199 265.949C679.165 266.369 677.926 266.58 676.483 266.58ZM677.591 262.489C679 262.489 680.205 262.21 681.205 261.653C682.216 261.097 682.983 260.369 683.506 259.472C684.04 258.562 684.307 257.591 684.307 256.557V253.182C684.125 253.364 683.773 253.534 683.25 253.693C682.739 253.841 682.153 253.972 681.494 254.085C680.835 254.187 680.193 254.284 679.568 254.375C678.943 254.455 678.42 254.523 678 254.58C677.011 254.705 676.108 254.915 675.29 255.21C674.483 255.506 673.835 255.932 673.347 256.489C672.869 257.034 672.631 257.761 672.631 258.67C672.631 259.932 673.097 260.886 674.028 261.534C674.96 262.17 676.148 262.489 677.591 262.489ZM701.288 250.455V266H696.192V231.091H701.22V244.08H701.544C702.158 242.67 703.095 241.551 704.357 240.722C705.618 239.892 707.266 239.477 709.3 239.477C711.095 239.477 712.663 239.847 714.004 240.585C715.357 241.324 716.402 242.426 717.141 243.892C717.891 245.347 718.266 247.165 718.266 249.347V266H713.169V249.96C713.169 248.04 712.675 246.551 711.686 245.494C710.697 244.426 709.322 243.892 707.561 243.892C706.357 243.892 705.277 244.148 704.322 244.659C703.379 245.17 702.635 245.92 702.089 246.909C701.555 247.886 701.288 249.068 701.288 250.455Z" fill="white"/>
<path d="M51.0682 356V286.182H79.0227C84.1591 286.182 88.4432 286.943 91.875 288.466C95.3068 289.989 97.8864 292.102 99.6136 294.807C101.341 297.489 102.205 300.58 102.205 304.08C102.205 306.807 101.659 309.205 100.568 311.273C99.4773 313.318 97.9773 315 96.0682 316.318C94.1818 317.614 92.0227 318.534 89.5909 319.08V319.761C92.25 319.875 94.7386 320.625 97.0568 322.011C99.3977 323.398 101.295 325.341 102.75 327.841C104.205 330.318 104.932 333.273 104.932 336.705C104.932 340.409 104.011 343.716 102.17 346.625C100.352 349.511 97.6591 351.795 94.0909 353.477C90.5227 355.159 86.125 356 80.8977 356H51.0682ZM65.8295 343.932H77.8636C81.9773 343.932 84.9773 343.148 86.8636 341.58C88.75 339.989 89.6932 337.875 89.6932 335.239C89.6932 333.307 89.2273 331.602 88.2955 330.125C87.3636 328.648 86.0341 327.489 84.3068 326.648C82.6023 325.807 80.5682 325.386 78.2045 325.386H65.8295V343.932ZM65.8295 315.398H76.7727C78.7955 315.398 80.5909 315.045 82.1591 314.341C83.75 313.614 85 312.591 85.9091 311.273C86.8409 309.955 87.3068 308.375 87.3068 306.534C87.3068 304.011 86.4091 301.977 84.6136 300.432C82.8409 298.886 80.3182 298.114 77.0455 298.114H65.8295V315.398ZM139.088 357.023C133.701 357.023 129.065 355.932 125.179 353.75C121.315 351.545 118.338 348.432 116.247 344.409C114.156 340.364 113.111 335.58 113.111 330.057C113.111 324.67 114.156 319.943 116.247 315.875C118.338 311.807 121.281 308.636 125.076 306.364C128.895 304.091 133.372 302.955 138.508 302.955C141.963 302.955 145.179 303.511 148.156 304.625C151.156 305.716 153.77 307.364 155.997 309.568C158.247 311.773 159.997 314.545 161.247 317.886C162.497 321.205 163.122 325.091 163.122 329.545V333.534H118.906V324.534H149.451C149.451 322.443 148.997 320.591 148.088 318.977C147.179 317.364 145.917 316.102 144.304 315.193C142.713 314.261 140.861 313.795 138.747 313.795C136.542 313.795 134.588 314.307 132.883 315.33C131.201 316.33 129.883 317.682 128.929 319.386C127.974 321.068 127.486 322.943 127.463 325.011V333.568C127.463 336.159 127.94 338.398 128.895 340.284C129.872 342.17 131.247 343.625 133.02 344.648C134.792 345.67 136.895 346.182 139.326 346.182C140.94 346.182 142.417 345.955 143.758 345.5C145.099 345.045 146.247 344.364 147.201 343.455C148.156 342.545 148.883 341.432 149.383 340.114L162.815 341C162.133 344.227 160.736 347.045 158.622 349.455C156.531 351.841 153.826 353.705 150.508 355.045C147.213 356.364 143.406 357.023 139.088 357.023ZM173.559 356V303.636H187.639V312.773H188.184C189.139 309.523 190.741 307.068 192.991 305.409C195.241 303.727 197.832 302.886 200.764 302.886C201.491 302.886 202.275 302.932 203.116 303.023C203.957 303.114 204.696 303.239 205.332 303.398V316.284C204.65 316.08 203.707 315.898 202.502 315.739C201.298 315.58 200.196 315.5 199.196 315.5C197.059 315.5 195.15 315.966 193.468 316.898C191.809 317.807 190.491 319.08 189.514 320.716C188.559 322.352 188.082 324.239 188.082 326.375V356H173.559ZM257.369 318.568L244.073 319.386C243.846 318.25 243.357 317.227 242.607 316.318C241.857 315.386 240.869 314.648 239.641 314.102C238.437 313.534 236.994 313.25 235.312 313.25C233.062 313.25 231.164 313.727 229.619 314.682C228.073 315.614 227.3 316.864 227.3 318.432C227.3 319.682 227.8 320.739 228.8 321.602C229.8 322.466 231.516 323.159 233.948 323.682L243.425 325.591C248.516 326.636 252.312 328.318 254.812 330.636C257.312 332.955 258.562 336 258.562 339.773C258.562 343.205 257.55 346.216 255.528 348.807C253.528 351.398 250.778 353.42 247.278 354.875C243.8 356.307 239.789 357.023 235.244 357.023C228.312 357.023 222.789 355.58 218.675 352.693C214.585 349.784 212.187 345.83 211.482 340.83L225.766 340.08C226.198 342.193 227.244 343.807 228.903 344.92C230.562 346.011 232.687 346.557 235.278 346.557C237.823 346.557 239.869 346.068 241.414 345.091C242.982 344.091 243.778 342.807 243.8 341.239C243.778 339.92 243.221 338.841 242.13 338C241.039 337.136 239.357 336.477 237.085 336.023L228.016 334.216C222.903 333.193 219.096 331.42 216.596 328.898C214.119 326.375 212.88 323.159 212.88 319.25C212.88 315.886 213.789 312.989 215.607 310.557C217.448 308.125 220.028 306.25 223.346 304.932C226.687 303.614 230.596 302.955 235.073 302.955C241.687 302.955 246.891 304.352 250.687 307.148C254.505 309.943 256.732 313.75 257.369 318.568ZM283.599 356.989C280.258 356.989 277.28 356.409 274.667 355.25C272.053 354.068 269.985 352.33 268.462 350.034C266.962 347.716 266.212 344.83 266.212 341.375C266.212 338.466 266.746 336.023 267.814 334.045C268.883 332.068 270.337 330.477 272.178 329.273C274.019 328.068 276.11 327.159 278.451 326.545C280.814 325.932 283.292 325.5 285.883 325.25C288.928 324.932 291.383 324.636 293.246 324.364C295.11 324.068 296.462 323.636 297.303 323.068C298.144 322.5 298.564 321.659 298.564 320.545V320.341C298.564 318.182 297.883 316.511 296.519 315.33C295.178 314.148 293.269 313.557 290.792 313.557C288.178 313.557 286.099 314.136 284.553 315.295C283.008 316.432 281.985 317.864 281.485 319.591L268.053 318.5C268.735 315.318 270.076 312.568 272.076 310.25C274.076 307.909 276.655 306.114 279.814 304.864C282.996 303.591 286.678 302.955 290.86 302.955C293.769 302.955 296.553 303.295 299.212 303.977C301.894 304.659 304.269 305.716 306.337 307.148C308.428 308.58 310.076 310.42 311.28 312.67C312.485 314.898 313.087 317.568 313.087 320.682V356H299.314V348.739H298.905C298.064 350.375 296.939 351.818 295.53 353.068C294.121 354.295 292.428 355.261 290.451 355.966C288.474 356.648 286.189 356.989 283.599 356.989ZM287.758 346.966C289.894 346.966 291.78 346.545 293.417 345.705C295.053 344.841 296.337 343.682 297.269 342.227C298.201 340.773 298.667 339.125 298.667 337.284V331.727C298.212 332.023 297.587 332.295 296.792 332.545C296.019 332.773 295.144 332.989 294.167 333.193C293.189 333.375 292.212 333.545 291.235 333.705C290.258 333.841 289.371 333.966 288.576 334.08C286.871 334.33 285.383 334.727 284.11 335.273C282.837 335.818 281.849 336.557 281.144 337.489C280.439 338.398 280.087 339.534 280.087 340.898C280.087 342.875 280.803 344.386 282.235 345.432C283.689 346.455 285.53 346.966 287.758 346.966ZM325.314 356V303.636H339.155V312.875H339.769C340.86 309.807 342.678 307.386 345.223 305.614C347.769 303.841 350.814 302.955 354.36 302.955C357.951 302.955 361.007 303.852 363.53 305.648C366.053 307.42 367.735 309.83 368.576 312.875H369.121C370.189 309.875 372.121 307.477 374.916 305.682C377.735 303.864 381.064 302.955 384.905 302.955C389.791 302.955 393.757 304.511 396.803 307.625C399.871 310.716 401.405 315.102 401.405 320.784V356H386.916V323.648C386.916 320.739 386.144 318.557 384.598 317.102C383.053 315.648 381.121 314.92 378.803 314.92C376.166 314.92 374.11 315.761 372.632 317.443C371.155 319.102 370.416 321.295 370.416 324.023V356H356.337V323.341C356.337 320.773 355.598 318.727 354.121 317.205C352.666 315.682 350.746 314.92 348.36 314.92C346.746 314.92 345.291 315.33 343.996 316.148C342.723 316.943 341.712 318.068 340.962 319.523C340.212 320.955 339.837 322.636 339.837 324.568V356H325.314ZM428.769 356.989C425.428 356.989 422.45 356.409 419.837 355.25C417.223 354.068 415.155 352.33 413.632 350.034C412.132 347.716 411.382 344.83 411.382 341.375C411.382 338.466 411.916 336.023 412.984 334.045C414.053 332.068 415.507 330.477 417.348 329.273C419.189 328.068 421.28 327.159 423.621 326.545C425.984 325.932 428.462 325.5 431.053 325.25C434.098 324.932 436.553 324.636 438.416 324.364C440.28 324.068 441.632 323.636 442.473 323.068C443.314 322.5 443.734 321.659 443.734 320.545V320.341C443.734 318.182 443.053 316.511 441.689 315.33C440.348 314.148 438.439 313.557 435.962 313.557C433.348 313.557 431.269 314.136 429.723 315.295C428.178 316.432 427.155 317.864 426.655 319.591L413.223 318.5C413.905 315.318 415.246 312.568 417.246 310.25C419.246 307.909 421.825 306.114 424.984 304.864C428.166 303.591 431.848 302.955 436.03 302.955C438.939 302.955 441.723 303.295 444.382 303.977C447.064 304.659 449.439 305.716 451.507 307.148C453.598 308.58 455.246 310.42 456.45 312.67C457.655 314.898 458.257 317.568 458.257 320.682V356H444.484V348.739H444.075C443.234 350.375 442.109 351.818 440.7 353.068C439.291 354.295 437.598 355.261 435.621 355.966C433.644 356.648 431.359 356.989 428.769 356.989ZM432.928 346.966C435.064 346.966 436.95 346.545 438.587 345.705C440.223 344.841 441.507 343.682 442.439 342.227C443.371 340.773 443.837 339.125 443.837 337.284V331.727C443.382 332.023 442.757 332.295 441.962 332.545C441.189 332.773 440.314 332.989 439.337 333.193C438.359 333.375 437.382 333.545 436.405 333.705C435.428 333.841 434.541 333.966 433.746 334.08C432.041 334.33 430.553 334.727 429.28 335.273C428.007 335.818 427.019 336.557 426.314 337.489C425.609 338.398 425.257 339.534 425.257 340.898C425.257 342.875 425.973 344.386 427.405 345.432C428.859 346.455 430.7 346.966 432.928 346.966ZM493.936 356V286.182H508.697V316.966H509.617L534.742 286.182H552.436L526.527 317.443L552.742 356H535.083L515.958 327.295L508.697 336.159V356H493.936ZM575.742 356.989C572.401 356.989 569.424 356.409 566.81 355.25C564.197 354.068 562.129 352.33 560.606 350.034C559.106 347.716 558.356 344.83 558.356 341.375C558.356 338.466 558.89 336.023 559.958 334.045C561.026 332.068 562.481 330.477 564.322 329.273C566.163 328.068 568.254 327.159 570.595 326.545C572.958 325.932 575.435 325.5 578.026 325.25C581.072 324.932 583.526 324.636 585.39 324.364C587.254 324.068 588.606 323.636 589.447 323.068C590.288 322.5 590.708 321.659 590.708 320.545V320.341C590.708 318.182 590.026 316.511 588.663 315.33C587.322 314.148 585.413 313.557 582.935 313.557C580.322 313.557 578.242 314.136 576.697 315.295C575.151 316.432 574.129 317.864 573.629 319.591L560.197 318.5C560.879 315.318 562.22 312.568 564.22 310.25C566.22 307.909 568.799 306.114 571.958 304.864C575.14 303.591 578.822 302.955 583.004 302.955C585.913 302.955 588.697 303.295 591.356 303.977C594.038 304.659 596.413 305.716 598.481 307.148C600.572 308.58 602.22 310.42 603.424 312.67C604.629 314.898 605.231 317.568 605.231 320.682V356H591.458V348.739H591.049C590.208 350.375 589.083 351.818 587.674 353.068C586.265 354.295 584.572 355.261 582.595 355.966C580.617 356.648 578.333 356.989 575.742 356.989ZM579.901 346.966C582.038 346.966 583.924 346.545 585.56 345.705C587.197 344.841 588.481 343.682 589.413 342.227C590.345 340.773 590.81 339.125 590.81 337.284V331.727C590.356 332.023 589.731 332.295 588.935 332.545C588.163 332.773 587.288 332.989 586.31 333.193C585.333 333.375 584.356 333.545 583.379 333.705C582.401 333.841 581.515 333.966 580.72 334.08C579.015 334.33 577.526 334.727 576.254 335.273C574.981 335.818 573.992 336.557 573.288 337.489C572.583 338.398 572.231 339.534 572.231 340.898C572.231 342.875 572.947 344.386 574.379 345.432C575.833 346.455 577.674 346.966 579.901 346.966ZM617.458 356V303.636H631.299V312.875H631.912C633.003 309.807 634.822 307.386 637.367 305.614C639.912 303.841 642.958 302.955 646.503 302.955C650.094 302.955 653.151 303.852 655.674 305.648C658.197 307.42 659.878 309.83 660.719 312.875H661.265C662.333 309.875 664.265 307.477 667.06 305.682C669.878 303.864 673.208 302.955 677.049 302.955C681.935 302.955 685.901 304.511 688.947 307.625C692.015 310.716 693.549 315.102 693.549 320.784V356H679.06V323.648C679.06 320.739 678.287 318.557 676.742 317.102C675.197 315.648 673.265 314.92 670.947 314.92C668.31 314.92 666.253 315.761 664.776 317.443C663.299 319.102 662.56 321.295 662.56 324.023V356H648.481V323.341C648.481 320.773 647.742 318.727 646.265 317.205C644.81 315.682 642.89 314.92 640.503 314.92C638.89 314.92 637.435 315.33 636.14 316.148C634.867 316.943 633.856 318.068 633.106 319.523C632.356 320.955 631.981 322.636 631.981 324.568V356H617.458ZM705.98 356V303.636H720.503V356H705.98ZM713.276 296.886C711.117 296.886 709.265 296.17 707.719 294.739C706.196 293.284 705.435 291.545 705.435 289.523C705.435 287.523 706.196 285.807 707.719 284.375C709.265 282.92 711.117 282.193 713.276 282.193C715.435 282.193 717.276 282.92 718.799 284.375C720.344 285.807 721.117 287.523 721.117 289.523C721.117 291.545 720.344 293.284 718.799 294.739C717.276 296.17 715.435 296.886 713.276 296.886Z" fill="white"/>
<defs>
<linearGradient id="paint0_linear_321_2" x1="720" y1="-114.89" x2="720" y2="721" gradientUnits="userSpaceOnUse">
<stop stop-color="#0A65CC"/>
<stop offset="1" stop-color="white"/>
</linearGradient>
</defs>
</svg>
