<svg width="60" height="60" viewBox="0 0 60 60" fill="none" xmlns="http://www.w3.org/2000/svg">
<g filter="url(#filter0_d_130_55)">
<path d="M19.0831 30.7181C19.0831 31.0754 18.8107 31.3613 18.4797 31.3613C18.1446 31.3613 17.8764 31.071 17.8764 30.7181V14.9661H5.20665V46.7114H7.29732C7.6325 46.7114 7.90065 47.0017 7.90065 47.3545C7.90065 47.7118 7.62831 47.9977 7.29732 47.9977H4.60332C4.26814 47.9977 4 47.7074 4 47.3545V14.6222C4 14.3631 4.10055 14.1264 4.25976 13.9522C4.41897 13.7825 4.64103 13.6753 4.88822 13.6753H17.8764V1.12993C17.8764 0.821771 17.9937 0.535937 18.1865 0.334961V0.330495C18.3792 0.125052 18.6431 0 18.9364 0H40.4507C40.744 0 41.008 0.125052 41.2007 0.330495L41.2468 0.384089C41.4102 0.585065 41.5149 0.844101 41.5149 1.12993V13.6753H54.5953C54.8383 13.6753 55.0604 13.7825 55.2196 13.9522L55.2238 13.9567C55.383 14.1264 55.4835 14.3631 55.4835 14.6222V47.3545C55.4835 47.7118 55.2112 47.9977 54.8802 47.9977H51.0508C50.7156 47.9977 50.4475 47.7074 50.4475 47.3545C50.4475 46.9972 50.7198 46.7114 51.0508 46.7114H54.2769V14.9661H41.5107V30.5306C41.5107 30.8879 41.2384 31.1737 40.9074 31.1737C40.5722 31.1737 40.3041 30.8834 40.3041 30.5306V1.28625H19.0831V30.7181ZM44.7033 30.611H51.365C51.4195 30.611 51.4656 30.6467 51.4656 30.6869V32.786C51.4656 32.8306 51.4195 32.8664 51.365 32.8664H44.7033C44.6489 32.8664 44.6028 32.8306 44.6028 32.786V30.6869C44.6028 30.6467 44.6489 30.611 44.7033 30.611ZM8.06824 30.611H14.7299C14.7844 30.611 14.8305 30.6467 14.8305 30.6869V32.786C14.8305 32.8306 14.7844 32.8664 14.7299 32.8664H8.06824C8.01377 32.8664 7.96768 32.8306 7.96768 32.786V30.6869C7.96768 30.6467 8.01377 30.611 8.06824 30.611ZM21.7896 3.78283H37.6017C37.8657 3.78283 38.0835 4.01506 38.0835 4.29643V9.79426C38.0835 10.0756 37.8657 10.3079 37.6017 10.3079H21.7896C21.5257 10.3079 21.3078 10.0756 21.3078 9.79426V4.29643C21.3036 4.01506 21.5215 3.78283 21.7896 3.78283ZM44.8081 46.9035C44.3681 45.9611 43.8109 45.1617 43.1573 44.4114C44.3807 44.916 45.6334 45.4162 46.5594 46.037C48.2437 47.1625 48.3693 48.5247 48.5076 50.4808H40.1575C40.1575 50.4674 40.1575 50.4496 40.1575 50.4362L40.0024 49.0383L40.6016 49.5921L43.5344 46.8722L44.8081 46.9035ZM14.9268 44.6972L15.9868 48.02L16.5189 46.046L16.2592 45.7423C16.1419 45.5592 16.1167 45.3984 16.1796 45.2599C16.322 44.9607 16.6153 45.0187 16.8876 45.0187C17.1725 45.0187 17.5287 44.9607 17.6167 45.3448C17.646 45.4743 17.6083 45.6083 17.5245 45.7467L17.2647 46.0504L17.7968 48.0245L18.7563 44.7016C18.8945 44.8356 19.0914 44.9473 19.3177 45.0455C19.2381 45.2242 19.1669 45.4073 19.104 45.6038C18.9406 46.1085 18.8359 46.6668 18.7898 47.2875H18.794C18.794 47.3009 18.794 47.3188 18.7898 47.3322L18.5593 50.4853H10.8879C10.4271 50.4496 10.1924 50.195 10.1547 49.7573L10.3139 48.0155C10.36 47.3947 10.5234 46.9079 10.7874 46.5328C10.9633 46.2871 11.1812 46.104 11.42 45.9611C12.1826 45.4922 14.2355 45.3626 14.9268 44.6972ZM14.4073 39.9854C14.3026 39.9943 14.2272 40.0211 14.1685 40.0569C14.135 40.0792 14.114 40.1105 14.0973 40.1462C14.0805 40.1864 14.0721 40.24 14.0721 40.298C14.0763 40.4811 14.1685 40.7268 14.3487 41.0081L14.3528 41.0126L14.9436 42.0175C15.1782 42.4195 15.4296 42.8259 15.7313 43.1251C16.0204 43.4065 16.3765 43.5985 16.8416 43.603C17.3485 43.603 17.7172 43.4065 18.0189 43.1072C18.3331 42.7946 18.5845 42.3569 18.8317 41.9237L19.4978 40.7536C19.6319 40.4276 19.6738 40.231 19.6319 40.1373C19.6068 40.0792 19.4937 40.0658 19.3135 40.0792C19.1962 40.106 19.0789 40.0837 18.949 40.0122L19.28 38.9493C18.0608 38.9314 17.2228 38.7081 16.2382 38.0337C15.9156 37.8149 15.8151 37.5603 15.4925 37.5826C15.2453 37.6317 15.04 37.7523 14.8766 37.9399C14.7174 38.1186 14.6 38.3642 14.5246 38.6813L14.7215 39.9586C14.6168 40.0256 14.5121 40.0301 14.4073 39.9854ZM19.6906 39.6683C19.833 39.713 19.9378 39.8023 20.0048 39.9363C20.1054 40.1551 20.0677 40.4767 19.8791 40.9322C19.8749 40.9412 19.8707 40.9501 19.8665 40.959L19.192 42.1426C18.9322 42.6026 18.6641 43.0626 18.308 43.4199C17.9351 43.7906 17.4784 44.0362 16.8499 44.0362C16.2634 44.0362 15.8234 43.795 15.4631 43.4422C15.1154 43.1028 14.8514 42.6696 14.6042 42.2453L14.0135 41.2404C13.7914 40.8876 13.6783 40.566 13.6699 40.3025C13.6657 40.173 13.6867 40.0569 13.7328 39.9541C13.7789 39.847 13.8543 39.7532 13.9506 39.6862C13.9967 39.6504 14.0512 39.6236 14.114 39.6013C14.0763 39.0654 14.0638 38.3999 14.0889 37.8372C14.1015 37.6987 14.1266 37.5648 14.1601 37.4263C14.3109 36.8502 14.6922 36.3857 15.1615 36.0686C15.3291 35.9569 15.5092 35.8631 15.7019 35.7872C16.8416 35.3495 18.3499 35.5862 19.1585 36.5197C19.4895 36.8993 19.6948 37.404 19.7367 38.0694L19.6906 39.6683ZM25.6526 35.22C25.5185 35.2379 25.4179 35.2736 25.3425 35.3227C25.2923 35.3585 25.2587 35.4031 25.2378 35.4523C25.2127 35.5148 25.2001 35.5907 25.2001 35.6756C25.2085 35.948 25.3467 36.3142 25.6107 36.734L25.6149 36.743L26.4989 38.2436C26.8508 38.8421 27.2195 39.4495 27.6762 39.8961C28.112 40.3204 28.6357 40.6062 29.3312 40.6062C30.0853 40.6062 30.6384 40.3114 31.0825 39.8648C31.5517 39.3959 31.9288 38.7483 32.2933 38.1007L33.2863 36.3589C33.4874 35.8721 33.546 35.5773 33.4832 35.4433C33.4413 35.354 33.2695 35.3317 32.9762 35.3629C32.9553 35.3629 32.9302 35.3629 32.9092 35.3629C32.7877 35.3629 32.6578 35.3317 32.5112 35.2602L32.9595 33.6703C31.1369 33.6479 29.8926 33.3085 28.4178 32.3036C27.9318 31.9731 27.7893 31.598 27.3033 31.6337C26.9388 31.7096 26.6288 31.8838 26.3858 32.1652C26.1512 32.4331 25.9752 32.7994 25.8579 33.2728L26.1721 35.1977C25.9919 35.287 25.816 35.2959 25.6526 35.22ZM26.4738 42.2453L28.0575 47.2072L28.8535 44.264L28.4639 43.8084C28.2879 43.536 28.2502 43.2948 28.3466 43.0894C28.5561 42.6428 28.996 42.7276 29.4024 42.7276C29.8297 42.7276 30.3577 42.6428 30.4917 43.21C30.5378 43.402 30.4792 43.5985 30.3535 43.8084L29.9638 44.264L30.7599 47.2072L32.1928 42.2453C33.2276 43.2368 35.8881 43.4377 37.0277 44.1121C37.3378 44.2952 37.6185 44.523 37.8573 44.8133C37.8615 44.782 37.8699 44.7463 37.8866 44.7195C38.0123 44.456 38.2721 44.5051 38.5151 44.5051C38.7706 44.5051 39.0849 44.456 39.1645 44.7954C39.1896 44.9071 39.1561 45.0277 39.0849 45.1527L38.8544 45.4252L39.3279 47.1759L38.7204 47.6895L38.9215 50.4987C38.8628 51.1552 38.5151 51.5304 37.828 51.5884H20.8428C20.1556 51.5304 19.8079 51.1552 19.7492 50.4987L19.988 47.1893C20.0551 46.2648 20.2981 45.5324 20.6961 44.9741C20.9559 44.6079 21.2827 44.3354 21.643 44.1211C22.7784 43.4377 25.4389 43.2368 26.4738 42.2453ZM33.5796 34.7421C33.7932 34.8091 33.9524 34.9387 34.0488 35.1441C34.1996 35.4701 34.141 35.948 33.8603 36.6313C33.8561 36.6447 33.8477 36.6581 33.8435 36.6715L32.8338 38.4401C32.4441 39.1279 32.0461 39.8112 31.514 40.3427C30.9568 40.8965 30.2739 41.2672 29.3395 41.2627C28.4639 41.2627 27.8061 40.9054 27.2656 40.3784C26.7461 39.8738 26.3565 39.2262 25.9794 38.592L25.0953 37.0913C24.7643 36.5688 24.5968 36.0865 24.5842 35.689C24.58 35.4969 24.6093 35.3227 24.6764 35.1709C24.7476 35.0101 24.8565 34.8717 25.0032 34.7689C25.0744 34.7154 25.1582 34.6752 25.2462 34.6394C25.1917 33.8355 25.1749 32.844 25.2085 32.0089C25.2294 31.8034 25.2629 31.6024 25.3174 31.397C25.5436 30.535 26.1093 29.8428 26.8131 29.3694C27.0603 29.1997 27.3327 29.0612 27.6176 28.954C29.3144 28.2975 31.5685 28.6548 32.7751 30.0482C33.2653 30.6154 33.5754 31.3657 33.6424 32.3572L33.5796 34.7421ZM36.6506 42.9331L37.4299 42.9107L38.0793 42.8929C37.3252 40.4142 37.5766 38.1364 39.3949 36.1981C39.705 37.2611 40.3963 38.1409 41.5736 38.7885C42.135 39.2351 42.6797 39.771 43.2076 40.3918C43.2998 39.9809 42.9436 39.4852 42.5121 38.9716C42.9101 39.1815 43.2788 39.4763 43.5386 40.0435C43.8402 40.7 43.836 41.2538 43.7355 41.9684C43.6894 42.2989 43.614 42.6115 43.5051 42.8929H44.5818C45.7172 40.3025 44.9966 36.4571 42.6755 34.827C41.9632 34.3268 41.4521 34.3447 40.6141 34.3447C39.6589 34.3447 39.1687 34.3759 38.3475 34.9565C37.1408 35.8096 36.3951 37.2834 36.085 39.3289C36.0222 40.3516 35.9803 42.1157 36.6506 42.9331ZM44.7033 26.0242H51.365C51.4195 26.0242 51.4656 26.06 51.4656 26.1046V28.2037C51.4656 28.2484 51.4195 28.2841 51.365 28.2841H44.7033C44.6489 28.2841 44.6028 28.2484 44.6028 28.2037V26.1046C44.6028 26.06 44.6489 26.0242 44.7033 26.0242ZM44.7033 21.433H51.365C51.4195 21.433 51.4656 21.4688 51.4656 21.5134V23.6125C51.4656 23.6572 51.4195 23.6929 51.365 23.6929H44.7033C44.6489 23.6929 44.6028 23.6572 44.6028 23.6125V21.5134C44.6028 21.4688 44.6489 21.433 44.7033 21.433ZM8.06824 26.0242H14.7299C14.7844 26.0242 14.8305 26.06 14.8305 26.1046V28.2037C14.8305 28.2484 14.7844 28.2841 14.7299 28.2841H8.06824C8.01377 28.2841 7.96768 28.2484 7.96768 28.2037V26.1046C7.96768 26.06 8.01377 26.0242 8.06824 26.0242ZM8.06824 21.433H14.7299C14.7844 21.433 14.8305 21.4688 14.8305 21.5134V23.6125C14.8305 23.6572 14.7844 23.6929 14.7299 23.6929H8.06824C8.01377 23.6929 7.96768 23.6572 7.96768 23.6125V21.5134C7.96768 21.4688 8.01377 21.433 8.06824 21.433ZM34.0279 21.9198H37.585C37.6394 21.9198 37.6855 21.969 37.6855 22.027V25.8188C37.6855 25.8768 37.6394 25.926 37.585 25.926H34.0279C33.9734 25.926 33.9273 25.8768 33.9273 25.8188V22.027C33.9273 21.969 33.9734 21.9198 34.0279 21.9198ZM27.915 21.9198H31.4721C31.5266 21.9198 31.5727 21.969 31.5727 22.027V25.8188C31.5727 25.8768 31.5266 25.926 31.4721 25.926H27.915C27.8606 25.926 27.8145 25.8768 27.8145 25.8188V22.027C27.8145 21.969 27.8606 21.9198 27.915 21.9198ZM21.8022 21.9198H25.3593C25.4138 21.9198 25.4598 21.969 25.4598 22.027V25.8188C25.4598 25.8768 25.4138 25.926 25.3593 25.926H21.8022C21.7477 25.926 21.7016 25.8768 21.7016 25.8188V22.027C21.7016 21.969 21.7477 21.9198 21.8022 21.9198ZM34.0279 14.5641H37.585C37.6394 14.5641 37.6855 14.6132 37.6855 14.6713V18.463C37.6855 18.5211 37.6394 18.5702 37.585 18.5702H34.0279C33.9734 18.5702 33.9273 18.5211 33.9273 18.463V14.6713C33.9273 14.6088 33.9734 14.5641 34.0279 14.5641ZM27.915 14.5641H31.4721C31.5266 14.5641 31.5727 14.6132 31.5727 14.6713V18.463C31.5727 18.5211 31.5266 18.5702 31.4721 18.5702H27.915C27.8606 18.5702 27.8145 18.5211 27.8145 18.463V14.6713C27.8145 14.6088 27.8606 14.5641 27.915 14.5641ZM21.8022 14.5641H25.3593C25.4138 14.5641 25.4598 14.6132 25.4598 14.6713V18.463C25.4598 18.5211 25.4138 18.5702 25.3593 18.5702H21.8022C21.7477 18.5702 21.7016 18.5211 21.7016 18.463V14.6713C21.7016 14.6088 21.7477 14.5641 21.8022 14.5641Z" fill="#0A65CC"/>
</g>
<defs>
<filter id="filter0_d_130_55" x="0" y="0" width="59.4835" height="59.5884" filterUnits="userSpaceOnUse" color-interpolation-filters="sRGB">
<feFlood flood-opacity="0" result="BackgroundImageFix"/>
<feColorMatrix in="SourceAlpha" type="matrix" values="0 0 0 0 0 0 0 0 0 0 0 0 0 0 0 0 0 0 127 0" result="hardAlpha"/>
<feOffset dy="4"/>
<feGaussianBlur stdDeviation="2"/>
<feComposite in2="hardAlpha" operator="out"/>
<feColorMatrix type="matrix" values="0 0 0 0 0 0 0 0 0 0 0 0 0 0 0 0 0 0 0.25 0"/>
<feBlend mode="normal" in2="BackgroundImageFix" result="effect1_dropShadow_130_55"/>
<feBlend mode="normal" in="SourceGraphic" in2="effect1_dropShadow_130_55" result="shape"/>
</filter>
</defs>
</svg>
