<svg width="51" height="45" viewBox="0 0 51 45" fill="none" xmlns="http://www.w3.org/2000/svg">
<path d="M27.2006 23.9941H23.4574C23.3955 23.9941 23.346 24.0205 23.3048 24.0601C23.2636 24.104 23.243 24.1611 23.243 24.2227V32.6338C23.243 32.6997 23.2677 32.7524 23.3048 32.7964C23.346 32.8403 23.3996 32.8623 23.4574 32.8623H27.1965C27.2584 32.8623 27.3078 32.8359 27.349 32.7964C27.3903 32.7524 27.4109 32.6953 27.4109 32.6338V24.2227C27.4109 24.1567 27.3861 24.104 27.349 24.0601C27.3119 24.0117 27.2584 23.9941 27.2006 23.9941ZM2.87755 6.13916H15.8595V2.1709C15.8595 1.56885 16.0903 1.02832 16.4572 0.637207C16.8283 0.246094 17.3395 0 17.896 0H32.762C33.3268 0 33.8297 0.246094 34.2007 0.637207C34.5676 1.02832 34.7985 1.57764 34.7985 2.1709V6.13916H47.7804C48.5761 6.13916 49.2934 6.48633 49.8087 7.04443C50.3323 7.60254 50.658 8.36719 50.658 9.20654V16.6157C47.4053 18.9932 44.0495 21.019 40.5907 22.6714C37.1113 24.3325 33.5246 25.6201 29.8143 26.5078V23.5459C29.8143 22.8691 29.5546 22.2451 29.1382 21.7969C28.7219 21.353 28.1365 21.0762 27.4975 21.0762H23.1564C22.5215 21.0762 21.9361 21.353 21.5156 21.7969C21.0992 22.2407 20.8395 22.8647 20.8395 23.5459V26.4419C17.2282 25.5586 13.7281 24.293 10.3353 22.6714C6.78161 20.9751 3.33927 18.8789 0 16.418V9.20654C0 8.3584 0.325682 7.59375 0.849247 7.04443C1.36869 6.48633 2.09014 6.13916 2.87755 6.13916ZM50.658 21.0103V41.1196C50.658 41.9678 50.3323 42.7324 49.8087 43.2817C49.2852 43.8398 48.5678 44.187 47.7804 44.187H2.87755C2.08189 44.187 1.36457 43.8398 0.849247 43.2817C0.325682 42.7236 0 41.959 0 41.1196V20.8257C2.84044 22.7681 5.76334 24.4644 8.76868 25.9014C12.648 27.7559 16.6716 29.1753 20.8437 30.1245V33.3106C20.8437 33.9873 21.1034 34.6113 21.5197 35.0596C21.9361 35.5034 22.5257 35.7803 23.1605 35.7803H27.5016C28.1365 35.7803 28.7219 35.5034 29.1424 35.0596C29.5587 34.6157 29.8185 33.9917 29.8185 33.3106V29.9707L29.8638 30.1729C34.1142 29.2192 38.212 27.7866 42.1614 25.897C45.0719 24.5083 47.9041 22.8735 50.658 21.0103ZM31.2119 2.95752H19.4543C19.3843 2.95752 19.3265 2.98389 19.273 3.04102C19.2317 3.08496 19.1946 3.15967 19.1946 3.23438V6.05566H31.4592V3.23438C31.4592 3.15967 31.4345 3.09814 31.3809 3.04102C31.3397 2.99707 31.2696 2.95752 31.1995 2.95752H31.2119Z" fill="#0A65CC"/>
</svg>
