<svg width="22" height="22" viewBox="0 0 22 22" fill="none" xmlns="http://www.w3.org/2000/svg">
<path fill-rule="evenodd" clip-rule="evenodd" d="M10.3574 0.0530843C10.2033 0.104018 9.96895 0.252888 9.8365 0.383846C9.70405 0.514908 8.98754 1.91498 8.24428 3.49497C7.50103 5.07507 6.86017 6.36716 6.8203 6.36633C6.78033 6.3655 5.50047 6.55371 3.97613 6.78447C2.16599 7.0586 1.06244 7.27341 0.794813 7.40395C0.112726 7.73647 -0.186308 8.6212 0.12031 9.39919C0.19451 9.58729 1.18409 10.704 2.39247 11.9634L4.53326 14.1944L4.05694 17.0879C3.48338 20.5726 3.47794 21.0004 4.00006 21.5562C4.29919 21.8746 4.43066 21.937 4.88811 21.9773C5.42092 22.0244 5.44485 22.0137 8.03608 20.57C9.47212 19.7699 10.6887 19.1006 10.7395 19.0827C10.7904 19.0648 12.0197 19.7139 13.4714 20.5251C15.8189 21.8369 16.1632 22 16.585 22C17.2221 22 17.7092 21.6494 17.931 21.031C18.0931 20.5789 18.0894 20.5398 17.5827 17.3831L17.0705 14.1921L19.154 12.0264C20.2998 10.8354 21.3137 9.73875 21.4069 9.58957C21.6411 9.21481 21.6311 8.3775 21.3875 7.95212C21.0451 7.35427 20.8783 7.30209 17.6872 6.79482L14.6748 6.31602L13.2883 3.36556C12.151 0.945571 11.8493 0.383949 11.61 0.24181C11.2297 0.0158152 10.7082 -0.0627598 10.3574 0.0530843Z" fill="#5A8AF2"/>
</svg>
